<?xml version="1.0" encoding="utf-8"?>
<!-- Generator: Adobe Illustrator 18.1.0, SVG Export Plug-In . SVG Version: 6.00 Build 0)  -->
<svg version="1.1" id="Layer_1" xmlns="http://www.w3.org/2000/svg" xmlns:xlink="http://www.w3.org/1999/xlink" x="0px" y="0px"
	 width="144px" height="144px" viewBox="0 0 144 144" enable-background="new 0 0 144 144" xml:space="preserve">
<g>
	<rect fill="#277D3E" width="144" height="144"/>
	<g>
		<g>
			<g>
				<g>
					<g>
						<path fill="#FFFFFF" d="M68.3,28.1c0-3,3.7-7.7,3.7-7.7s3.7,4.7,3.7,7.7c0,0.6-0.1,1.1-0.1,1.5c0.7-1.1,1.3-2.7,1.3-5
							c0-4-4.8-10.2-4.8-10.2s-4.9,6.1-4.9,10.2c0,2.3,0.6,3.8,1.3,4.9C68.4,29,68.3,28.6,68.3,28.1z"/>
						<g>
							<path fill="#FFFFFF" d="M80.8,28.9c-4.7,0.7-6.1,3.3-6.4,4.7c0.7-1,1.9-2,4.3-2.3c3-0.4,8.2,2.5,8.2,2.5s-4,4.1-7,4.7
								c0.7,0,1.5,0,2.3-0.1c4-0.6,9.4-6.2,9.4-6.2S84.8,28.4,80.8,28.9z"/>
							<path fill="#FFFFFF" d="M57.2,34c0,0,5.2-2.9,8.2-2.5c2.4,0.3,3.6,1.3,4.3,2.3c-0.3-1.5-1.6-4.1-6.4-4.7
								c-4-0.6-10.8,3.4-10.8,3.4s5.5,5.6,9.4,6.2c0.8,0.1,1.6,0.2,2.3,0.1C61.1,38,57.2,34,57.2,34z"/>
						</g>
						<polygon fill="#FFFFFF" points="72,44.4 65,35.6 72,53.4 79,35.6 						"/>
					</g>
					<g>
						<path fill="#FFFFFF" d="M20.2,74.5l-4.6-7.4h-2.9v5.2c0,0.7,0.2,1.3,2,1.3h0.2v0.8H8.8v-0.8h0.2c1.7,0,2-0.5,2-1.3v-11
							c0-0.7-0.3-1.1-2-1.1H8.8v-0.8h7.6c3.4,0,5.6,1.5,5.6,3.8c0,1.7-1.1,3.7-4.3,3.9l3.6,5.7c0.4,0.7,1,0.9,2.2,0.9h0.2v0.8
							L20.2,74.5L20.2,74.5z M16.8,66.4c2.9,0,3.3-2.2,3.3-3.1c0-1.9-1.4-2.9-3.8-2.9h-2c-1.1,0-1.6,0.3-1.6,1.1v5H16.8z"/>
						<path fill="#FFFFFF" d="M30.4,74.9c-5.2,0-7.5-4.1-7.5-7.9c0-3.8,2.4-7.9,7.5-7.9c5.3,0,7.8,4.1,7.8,7.9
							C38.1,70.9,35.8,74.9,30.4,74.9z M30.4,60c-3.8,0-5.6,3.7-5.6,7s1.8,7,5.6,7c4,0,5.8-3.7,5.8-7C36.2,63.7,34.4,60,30.4,60z"/>
						<path fill="#FFFFFF" d="M38.2,74.5l-0.4-0.4l11.7-13.8h-5c-2.9,0-4.3,1.6-5.3,3.1l-0.1,0.1l-0.7-0.2l1.6-3.8h11.6l0.2,0.5
							L40.3,73.7h6.1c1.7,0,3.5-1.1,4.9-3.1l0.1-0.1l0.7,0.2l-1.9,3.8H38.2z"/>
						<path fill="#FFFFFF" d="M53.3,74.5v-0.8h0.2c1.7,0,2-0.5,2-1.2v-11c0-0.7-0.3-1.1-2-1.1h-0.2v-0.8h12.3l1.7,3.7l-0.6,0.3
							l-0.1-0.1c-0.2-0.2-0.3-0.4-0.6-0.7c-1-1.1-2-2.5-5-2.5h-2.3c-1.1,0-1.6,0.3-1.6,1.1v4.9h3.4c1.6,0,2.4-0.7,2.4-2.5v-0.2h0.8
							v6.1h-0.8v-0.2c0-1.7-0.7-2.5-2.4-2.5h-3.4v5.3c0,0.9,0.5,1.2,1.7,1.2H61c2.5,0,4.2-0.9,6.1-3.2l0.1-0.1l0.7,0.2l-1.6,3.8
							L53.3,74.5L53.3,74.5z"/>
						<path fill="#FFFFFF" d="M68.2,74.5v-0.8h0.2c1.9,0,2-0.6,2-1.1V61.4c0-0.7-0.2-1.1-2-1.1h-0.2v-0.8h6.3v0.8h-0.1
							c-2,0-2.2,0.3-2.2,1.1v11.1c0,0.6,0.2,1.1,1.6,1.1h2.3c2,0,4-1.1,5.2-3.2l0.1-0.1l0.7,0.3l-1.8,3.8H68.2z"/>
						<path fill="#FFFFFF" d="M91.4,74.7l-5.9-13.9l0,0v11.7c0,0.8,0.3,1.2,2,1.2h0.2v0.8h-5.3v-0.8h0.2c1.7,0,2-0.4,2-1.2V61.3
							c0-0.7-0.3-1-2-1h-0.2v-0.8h4.4l5.3,12.6l5.3-12.6h4.5v0.8h-0.2c-1.9,0-2,0.4-2,1v11.2c0,0.7,0.3,1.2,2,1.2h0.2v0.8h-6.2v-0.8
							h0.2c1.8,0,2-0.6,2-1.2v-12l0,0l-6,14.2L91.4,74.7L91.4,74.7z"/>
						<path fill="#FFFFFF" d="M112.4,74.5v-0.8h0.2c1.7,0,2-0.2,2-0.7c0-0.2-0.1-0.3-0.2-0.6l-1.5-3.4h-6.6l-1.2,2.9
							c-0.2,0.3-0.2,0.7-0.2,0.9c0,0.5,0.3,0.8,2,0.8h0.2v0.8h-5.3v-0.8h0.2c1.1,0,1.6-0.2,2.3-2l4.8-12l1.5-0.6l5.7,13.3
							c0.4,1.1,1,1.4,2.1,1.4h0.2v0.8L112.4,74.5z M112.7,68.3l-3-7.2l-2.9,7.2H112.7z"/>
						<path fill="#FFFFFF" d="M132.5,74.6l-10.8-12.8v10.6c0,0.8,0.3,1.2,2.2,1.2h0.2v0.8h-5.6v-0.8h0.2c1.7,0,2-0.4,2-1.2V61.6
							c0-0.8-0.3-1.2-2-1.2h-0.2v-0.8h3.4l10.2,12.1V61.3c0-0.7-0.3-1-2.2-1h-0.2v-0.8h5.6v0.8h-0.2c-1.8,0-2,0.5-2,1v13.3H132.5z"
							/>
					</g>
				</g>
			</g>
		</g>
	</g>
	<g>
		<path fill="#FFFFFF" d="M12.6,95.6c-0.2,0.9-0.6,1.5-1.2,2V85.9c0-0.4-0.2-0.7-0.5-1.1c-0.4-0.4-1-0.8-1.6-1.2
			c-0.1-0.1-0.1-0.2,0-0.2c0.2-0.4,0.6-0.8,1.1-1.3c0.1-0.1,0.2-0.1,0.2,0.1c0.4,0.2,0.9,0.7,1.5,1.3c0.4,0.5,0.6,1.1,0.6,1.9V95.6z
			"/>
		<path fill="#FFFFFF" d="M23.3,89.8c0,0.7-0.1,1.5-0.2,2.4c-0.2,0.7-0.3,0.9-0.4,0.9h-5.2c0.1-0.3,0.2-0.6,0.3-0.8
			c0.1-0.2,0.2-0.5,0.5-0.9h3.7c0.2,0,0.4-0.1,0.4-0.2c0-0.1,0-0.3,0-0.7l-0.2-2.9c-0.2-2.3-1-3.5-2.4-3.5c-0.7,0-1.4,0.3-1.8,1
			c-0.3,0.6-0.7,1.4-1,2.6L16,92c-0.2,0.3-0.5,0.7-0.8,0.9c-0.2,0.2-0.5,0.3-0.7,0.4l1.1-4.6c0.2-0.9,0.3-1.6,0.3-1.9
			c0-0.2-0.1-0.6-0.2-1c-0.2-0.4-0.4-0.9-0.7-1.4c-0.3-0.5-0.5-0.8-0.7-1c-0.1-0.1-0.1-0.2-0.1-0.2c0.2-0.2,0.2-0.5,0.5-0.7
			c0.2-0.3,0.4-0.5,0.5-0.7c0.2-0.2,0.2-0.2,0.3,0c0.4,0.7,0.7,1.2,0.9,1.9c0.2,0.6,0.4,1.1,0.6,1.7c0.7-2.2,1.7-3.3,3.3-3.3
			c0.7,0,1.2,0.2,1.8,0.6c0.9,0.7,1.3,2,1.5,3.9L23.3,89.8z"/>
		<path fill="#FFFFFF" d="M31.9,85.3c0,1-0.2,2-0.7,2.9c-0.4,0.7-0.9,1.5-1.5,2.2c-0.8,1.1-2,2-3.7,3.1c0.1-0.3,0.1-0.7,0.2-1.1
			c0.1-0.6,0.2-0.9,0.3-1.1c0.5-0.4,1.3-1,2.4-1.9c1.2-1,1.8-2.1,1.8-3.4c0-0.7-0.1-1.3-0.3-1.6c-0.2-0.2-0.5-0.3-1-0.3H25
			c-0.2,0-0.2-0.2-0.2-0.5v-1.4c0-1.1-0.2-2.1-0.4-3.1c0.1-0.2,0.3-0.5,0.6-0.7c0.2-0.2,0.5-0.5,0.8-0.8c0.2,0.7,0.2,1.3,0.2,2
			c0,1.2,0,2.1-0.1,2.7c0,0.2,0,0.2,0.1,0.2h3.9c0.7,0,1.1,0.2,1.5,0.4c0.2,0.2,0.4,0.7,0.4,1.1C31.9,84.3,31.9,84.7,31.9,85.3z"/>
		<path fill="#FFFFFF" d="M38,84.6l-0.6,0.8c-0.1,0.2-0.2,0.2-0.4,0.2L36,85c-0.1,0-0.1-0.1-0.2-0.1c-0.2,0-0.2,0.2-0.2,0.5l1.1,5.9
			c0,0.3-0.2,0.7-0.3,1.1c-0.2,0.4-0.5,0.7-0.7,0.9l-1-6.1c-0.1-0.6-0.1-1-0.1-1.2c0.1-0.4,0.2-0.9,0.6-1.6l-2-1.1
			c-0.1-0.1-0.2-0.2-0.1-0.2c0-0.1,0.4-0.5,1.1-1.2c0.1-0.1,0.2,0,0.4,0.1l3.4,2.3C38,84.4,38.1,84.5,38,84.6z"/>
		<path fill="#FFFFFF" d="M42.6,91.5c-0.2,0.9-0.6,1.5-1.2,2v-7.5c0-0.4-0.2-0.8-0.6-1.2c-0.2-0.3-0.8-0.7-1.6-1.1
			c-0.1-0.1-0.1-0.2,0-0.2c0.2-0.4,0.6-0.8,1.1-1.3c0.1-0.1,0.2-0.1,0.2,0.1l1,0.8c0.7,0.7,1.1,1.5,1.1,2.5L42.6,91.5L42.6,91.5z"/>
		<path fill="#FFFFFF" d="M50.6,91.5c-0.1,0.4-0.2,0.7-0.4,1.1c-0.2,0.4-0.6,0.7-0.8,0.8V86c0-1.1-0.5-1.7-1.6-1.7h-3.7
			c-0.2,0-0.2-0.1-0.2-0.3c0.2-0.3,0.3-0.7,0.7-1.1s0.6-0.7,0.7-1c0.1-0.1,0.2-0.1,0.2,0.1l0.1,0.3c0.1,0.2,0.2,0.3,0.4,0.3h2.2
			c0.9,0,1.6,0.2,2,0.7c0.4,0.5,0.6,1.2,0.6,2.2v6H50.6z"/>
		<path fill="#FFFFFF" d="M65.3,90c0,1-0.1,1.8-0.2,2.4c-0.1,0.2-0.2,0.5-0.3,0.9h-7.8V85c0-0.4-0.1-0.7-0.3-0.9
			c-0.1-0.2-0.2-0.2-0.4-0.3c0.4-0.9,0.9-1.6,1.5-2c0.1-0.1,0.2-0.1,0.2,0.1l0.1,0.5c0.1,0.2,0.2,0.4,0.5,0.4h3.1
			c1.2,0,2.1,0.2,2.7,0.8c0.7,0.7,1,1.7,1,3.3L65.3,90L65.3,90z M64,91.2v-4.2c0-1-0.2-1.7-0.6-2.1c-0.4-0.4-1.1-0.7-2-0.7h-3.3v7.3
			h5.6C64,91.6,64,91.5,64,91.2z"/>
		<path fill="#FFFFFF" d="M69.9,84.8c0,0.4-0.1,0.7-0.2,1.1c-0.2,0.4-0.6,1-1.4,1.9c-0.1,0.1-0.2,0.2-0.5,0.4l-0.4,0.3h-0.1
			c0,0-0.1-0.1,0-0.1c0.2-0.3,0.5-0.8,0.9-1.6c0.2-0.5,0.4-0.9,0.4-1.3c0-0.2-0.1-0.4-0.2-0.7c-0.3-0.4-0.9-0.8-1.7-1.2
			c-0.1,0-0.1-0.1,0-0.2c0.2-0.2,0.3-0.6,0.7-1c0.2-0.2,0.2-0.3,0.3-0.3c0.1-0.1,0.2-0.1,0.2,0c0.4,0.3,0.7,0.6,1.1,0.9
			C69.5,83.6,69.9,84.2,69.9,84.8z"/>
		<path fill="#FFFFFF" d="M79.9,91.5c0,0.4-0.2,0.7-0.4,1.1c-0.2,0.4-0.5,0.7-0.8,0.8v-6.1c0-2-0.9-3-2.8-3h-2.6v7.2
			c-0.2,1-0.7,1.6-1.2,2V85c0-0.3-0.1-0.7-0.2-0.8c-0.2-0.2-0.3-0.2-0.5-0.4c0.4-0.9,0.9-1.6,1.5-2c0.1-0.1,0.2-0.1,0.2,0.1l0.1,0.5
			c0.1,0.2,0.2,0.4,0.5,0.4h2.5c1.3,0,2.3,0.3,2.9,1.1c0.6,0.7,0.9,1.8,0.9,3.3L79.9,91.5L79.9,91.5z"/>
		<path fill="#FFFFFF" d="M87.9,91.5c-0.1,0.4-0.2,0.7-0.4,1.1c-0.2,0.4-0.6,0.7-0.8,0.8V86c0-1.1-0.5-1.7-1.6-1.7h-3.7
			c-0.2,0-0.2-0.1-0.2-0.3c0.2-0.3,0.3-0.7,0.7-1.1c0.3-0.4,0.6-0.7,0.7-1c0.1-0.1,0.2-0.1,0.2,0.1l0.1,0.3c0.1,0.2,0.2,0.3,0.4,0.3
			h2.2c0.9,0,1.6,0.2,2,0.7c0.4,0.5,0.6,1.2,0.6,2.2v6H87.9z"/>
		<path fill="#FFFFFF" d="M97.5,87.5c0,1.1-0.2,2-0.4,2.9c-0.3,0.9-0.7,1.6-1,2c-0.4,0.6-0.8,0.9-1.1,0.9h-5.5
			c0.1-0.2,0.2-0.5,0.4-0.9c0.2-0.4,0.4-0.7,0.6-0.8h3.8c0.7,0,1.1-0.2,1.4-0.4c0.5-0.5,0.7-1.6,0.7-3c0-1.5-0.3-2.5-1.1-3.2
			c-0.4-0.4-1.1-0.7-1.9-0.7h-0.6c-0.6,0-1.1,0.2-1.3,0.5c-0.3,0.4-0.6,0.9-0.6,1.6c0,0.5,0.2,0.9,0.5,1.3c0.2,0.2,0.3,0.2,0.7,0.4
			c0.1,0.1,0.2,0.2,0.1,0.2c-0.2,0.4-0.4,0.7-0.7,0.9c-0.1,0.1-0.2,0.1-0.3,0.1c-0.4-0.2-0.7-0.4-1.1-0.8c-0.2-0.4-0.4-0.9-0.4-1.4
			c0-0.4,0.1-0.9,0.3-1.4c0.2-0.5,0.5-0.9,0.8-1.1h-1.1c-0.2,0-0.2-0.1-0.2-0.3c0.2-0.3,0.3-0.7,0.7-1.1c0.3-0.4,0.6-0.7,0.7-1
			c0.1-0.1,0.2-0.1,0.2,0.1l0.1,0.3c0.1,0.2,0.2,0.3,0.4,0.3H94c1,0,1.7,0.2,2.3,0.7C97,84.1,97.5,85.5,97.5,87.5z"/>
		<path fill="#FFFFFF" d="M111.8,85.3c0,1.1-0.2,2.2-0.7,3.2c-0.4,0.7-0.9,1.5-1.5,2.2c-0.7,0.9-1.7,1.7-3,2.6
			c0-0.9,0.1-1.6,0.2-1.9c0.4-0.3,1.1-0.8,2-1.6c1.2-1,1.8-2.2,1.8-3.4c0-0.7-0.2-1.2-0.4-1.6c-0.2-0.3-0.7-0.4-1.3-0.4h-5.7
			c-0.2,0-0.2-0.1-0.2-0.3c0.2-0.3,0.3-0.7,0.7-1.1c0.3-0.4,0.6-0.7,0.7-1c0.1-0.1,0.2-0.1,0.2,0.1l0.1,0.3c0.1,0.2,0.2,0.3,0.4,0.3
			h4.6c0.7,0,1.3,0.2,1.6,0.5C111.7,83.5,111.8,84.2,111.8,85.3z M104.9,95.6c-0.1,0.3-0.2,0.7-0.5,1.1c-0.2,0.4-0.5,0.7-0.7,0.8V88
			c0.1-0.2,0.2-0.5,0.5-0.9c0.2-0.3,0.5-0.6,0.7-0.7V95.6z"/>
		<path fill="#FFFFFF" d="M123.8,85.8c0,1-0.2,2-0.5,2.9c-0.3,1-0.7,1.8-1.2,2.5c-1.1,1.5-2.4,2.2-3.8,2.2c-1.1,0-2.1-0.4-2.7-1.1
			c-0.9-1.1-1.4-2.6-1.4-4.7v-1.1c0-0.7-0.1-1.2-0.2-1.8c-0.2-0.3-0.3-0.7-0.7-1.1c0.1-0.2,0.2-0.6,0.5-0.9c0.2-0.3,0.5-0.6,0.7-0.7
			c0.1-0.1,0.2,0,0.2,0.1c0.5,0.8,0.7,2,0.7,3.4v2c0,1.4,0.3,2.5,1.1,3.3c0.6,0.6,1.2,0.9,2.1,0.9c1,0,1.9-0.3,2.5-1.1
			c0.9-0.9,1.4-2.1,1.4-3.7c0-1.2-0.2-2.3-0.8-3.4c0.1-0.2,0.2-0.4,0.5-0.8c0.3-0.4,0.6-0.7,0.7-0.7c0.1-0.1,0.2,0,0.2,0.1
			C123.6,83.1,123.8,84.4,123.8,85.8z M119.5,85.2c0,0.7-0.2,1.3-0.5,2c-0.3,0.7-0.7,1.3-1.1,1.7c-0.3,0.3-0.6,0.5-0.8,0.7l-0.3,0.2
			c0,0-0.1,0-0.1-0.1s-0.1-0.2,0-0.2c1-1.3,1.6-2.5,1.6-3.4c0-0.8-0.2-1.6-0.7-2.4c0.1-0.2,0.2-0.6,0.5-0.9c0.2-0.3,0.5-0.6,0.7-0.7
			c0.1-0.1,0.2-0.1,0.2,0.1C119.2,83.1,119.5,84.1,119.5,85.2z"/>
		<path fill="#FFFFFF" d="M134.5,89.8c0,0.7-0.1,1.5-0.2,2.4c-0.2,0.7-0.3,0.9-0.4,0.9h-5.2c0.1-0.3,0.2-0.6,0.3-0.8
			c0.1-0.2,0.2-0.5,0.5-0.9h3.7c0.2,0,0.4-0.1,0.4-0.2c0-0.1,0-0.3,0-0.7l-0.2-2.9c-0.2-2.3-1-3.5-2.4-3.5c-0.7,0-1.4,0.3-1.8,1
			c-0.3,0.6-0.7,1.4-1,2.6l-1,4.3c-0.2,0.3-0.5,0.7-0.8,0.9c-0.2,0.2-0.5,0.3-0.7,0.4l1.1-4.6c0.2-0.9,0.3-1.6,0.3-1.9
			c0-0.2-0.1-0.6-0.2-1c-0.2-0.4-0.4-0.9-0.7-1.4c-0.3-0.5-0.5-0.8-0.7-1c-0.1-0.1-0.1-0.2-0.1-0.2c0.2-0.2,0.2-0.5,0.5-0.7
			c0.2-0.3,0.4-0.5,0.5-0.7c0.2-0.2,0.2-0.2,0.3,0c0.4,0.7,0.7,1.2,0.9,1.9c0.2,0.6,0.4,1.1,0.6,1.7c0.7-2.2,1.7-3.3,3.3-3.3
			c0.7,0,1.2,0.2,1.8,0.6c0.9,0.7,1.3,2,1.5,3.9L134.5,89.8z"/>
	</g>
	<rect y="110.4" fill="#ECD818" width="144" height="33.6"/>
	<g>
		<path fill="#006838" d="M11.4,134.4h-1.1v-9.7c0-0.7-0.2-1.1-0.8-1.1H9.4c-0.1,0-0.1,0-0.1,0v-0.8c0.1-0.1,0.3-0.1,0.6-0.1H10
			c0.4,0,0.7,0.2,1,0.4c0.3,0.3,0.5,0.8,0.5,1.4L11.4,134.4L11.4,134.4z"/>
		<path fill="#006838" d="M17.7,130.4c-0.7,0.7-1.6,1.1-2.8,1.1c-0.8,0-1.5-0.2-1.9-0.4v-1h0.1c0.5,0.3,1,0.5,1.6,0.5
			c2,0,2.9-1.1,2.9-3.4c0-2.2-1-3.5-2.9-3.5c-0.6,0-1.1,0.1-1.6,0.3h-0.1v-1c0.4-0.2,1.1-0.3,1.8-0.3c1.2,0,2.2,0.4,2.9,1.1
			c0.7,0.8,1,1.9,1,3.3C18.7,128.5,18.3,129.6,17.7,130.4z"/>
		<path fill="#006838" d="M25,131.5h-1.1v-4.7c0-2-1-3.1-2.9-3.1c-0.7,0-1.1,0.1-1.5,0.2h-0.1v-1c0.5-0.2,1.1-0.2,1.7-0.2
			c1.1,0,1.9,0.2,2.5,0.8c0.8,0.7,1.1,1.6,1.1,2.9L25,131.5L25,131.5z"/>
		<path fill="#006838" d="M32.7,122.9c0,1.1-0.2,2-0.4,2.7s-0.8,1.4-1.6,2.2c1.3,1.6,2,2.9,2,3.7h-6.1v-0.9h4.7
			c-0.2-0.6-0.9-1.4-1.8-2.5c-1.7-2-2.7-3.7-3-5.2v-0.1h1.1c0.2,0.7,0.5,1.4,0.9,2.2c0.5,0.8,1.1,1.6,1.6,2.2
			c0.9-0.7,1.4-2.2,1.4-4.4L32.7,122.9L32.7,122.9z"/>
		<path fill="#006838" d="M39.7,125.8c0,1.4-0.3,2.6-1.1,3.7c-0.7,1.1-1.7,1.9-3,2.3v-1c1.1-0.5,1.8-1.1,2.3-1.8
			c0.5-0.8,0.7-1.9,0.7-3.2v-1.9h-4.7v-3.3h1.1v2.3h4.7V125.8z"/>
		<path fill="#006838" d="M46.3,127.6h-1.1v-2.9c0-0.7-0.2-1.1-0.8-1.1h-0.1c-0.1,0-0.1,0-0.1,0v-0.8c0.1-0.1,0.3-0.1,0.6-0.1h0.1
			c0.4,0,0.7,0.2,1,0.4c0.3,0.3,0.5,0.8,0.5,1.4L46.3,127.6L46.3,127.6z"/>
		<path fill="#006838" d="M55,131.5h-1.1c-1.1-1.7-2.3-3.6-3.9-5.6c-0.6,0.9-0.9,2.2-0.9,3.8v1.8H48v-1.4c0-1,0.1-1.7,0.2-2.3
			c0.2-0.7,0.7-1.5,1.3-2.5c-0.3-0.4-0.9-1.1-1.9-2.3v-0.2h1.2c0.8,1,2.1,2.6,3.8,4.8c0.6-1,0.8-1.9,0.8-2.8v-2h1.1v1.3
			c0,1.5-0.5,2.8-1.6,4c0.8,1.1,1.5,2.2,2,3.1L55,131.5L55,131.5z"/>
		<path fill="#006838" d="M61.5,125.8c0,1.4-0.3,2.6-1.1,3.7c-0.7,1.1-1.7,1.9-3,2.3v-1c1.1-0.5,1.8-1.1,2.3-1.8
			c0.5-0.8,0.7-1.9,0.7-3.2v-1.9h-4.7v-3.3h1.1v2.3h4.7L61.5,125.8z"/>
		<path fill="#006838" d="M69.9,125.9c0,1.4-0.3,2.6-1.1,3.6s-1.7,1.7-3,2.1v-0.8c1.1-0.5,1.8-1.1,2.3-1.7c0.5-0.7,0.7-1.8,0.7-3.2
			v-2h-5.5v-1h6.5L69.9,125.9z M64.6,134.4h-1.1v-8.1h1.1V134.4z"/>
		<path fill="#006838" d="M78.5,131.5h-1.1v-4.6c0-2.1-1.1-3.2-3.2-3.2c-0.5,0-0.9,0.1-1.3,0.2v7.6h-1.1v-8.4
			c0.5-0.2,1.3-0.3,2.4-0.3c2.8,0,4.2,1.3,4.2,4L78.5,131.5L78.5,131.5z"/>
		<path fill="#006838" d="M86.7,131.5h-1.1v-4.7c0-2-1.1-3-3.2-3c-0.8,0-1.5,0.2-2,0.4h-0.1v-1.1c0.5-0.2,1.3-0.3,2.3-0.3
			c1.1,0,2.1,0.3,2.8,0.9c0.8,0.7,1.1,1.7,1.1,3.1L86.7,131.5L86.7,131.5z M81.6,131.5h-1.1v-4.7h1.1V131.5z"/>
		<path fill="#006838" d="M95.2,130.4c-0.6,0.7-1.4,1.1-2.5,1.1c-0.4,0-0.7-0.1-1-0.2v-0.8l0.1-0.1c0.2,0.2,0.6,0.2,0.8,0.2
			c1.6,0,2.3-1.1,2.3-3.4c0-2.4-0.8-3.6-2.4-3.6c-1.1,0-1.8,0.6-2.2,1.8c-0.2,0.4-0.2,1-0.2,1.7v4.3H89v-5.7c0-1.3-0.3-2-1-2H88
			v-0.8c0.1-0.1,0.2-0.1,0.4-0.1c0.3,0,0.7,0.2,0.9,0.4c0.4,0.3,0.6,0.8,0.6,1.5c0,0.1,0,0.2,0.1,0.1c0,0,0.1,0,0.1-0.1
			c0.6-1.3,1.5-2,2.7-2c0.9,0,1.6,0.3,2.1,0.9c0.7,0.7,1.1,2,1.1,3.6C96.1,128.7,95.8,129.8,95.2,130.4z"/>
		<path fill="#006838" d="M107.8,131.5H101v-5.9c0-0.6,0.2-1.1,0.6-1.7h-1v-1h3.7c1.1,0,2,0.2,2.5,0.8c0.6,0.6,0.9,1.5,0.9,2.7
			L107.8,131.5L107.8,131.5z M106.8,130.6v-4.2c0-0.9-0.2-1.6-0.6-2c-0.3-0.4-1-0.6-1.9-0.6h-2c-0.1,0-0.2,0.2-0.2,0.5v6.3
			L106.8,130.6L106.8,130.6z"/>
		<path fill="#006838" d="M111,127.6H110v-2.9c0-0.7-0.2-1.1-0.8-1.1h-0.1c-0.1,0-0.1,0-0.1,0v-0.8c0.1-0.1,0.3-0.1,0.6-0.1h0.1
			c0.4,0,0.7,0.2,1,0.4c0.3,0.3,0.5,0.8,0.5,1.4L111,127.6L111,127.6z"/>
		<path fill="#006838" d="M119.5,131.5h-1.1v-4.6c0-2.1-1.1-3.2-3.2-3.2c-0.5,0-0.9,0.1-1.3,0.2v7.6h-1.1v-8.4
			c0.5-0.2,1.3-0.3,2.4-0.3c2.8,0,4.2,1.3,4.2,4L119.5,131.5L119.5,131.5z"/>
		<path fill="#006838" d="M126.2,131.5h-1v-4.7c0-2-1-3.1-2.9-3.1c-0.7,0-1.1,0.1-1.5,0.2h-0.1v-1c0.5-0.2,1.1-0.2,1.7-0.2
			c1.1,0,1.9,0.2,2.5,0.8c0.8,0.7,1.1,1.6,1.1,2.9V131.5z"/>
		<path fill="#006838" d="M133.7,130.3c-0.7,0.8-1.7,1.2-2.9,1.2c-1,0-1.8-0.2-2.5-0.6v-1.1h0.2c0.6,0.5,1.3,0.7,2.2,0.7
			c2,0,2.9-1.1,2.9-3.5c0-2.4-1.1-3.6-3.1-3.6c-0.7,0-1.1,0.1-1.5,0.2v2.2c0,0.5,0.2,0.9,0.4,1.2c0.2,0.3,0.6,0.4,0.9,0.4v0.7
			c-0.1,0-0.1,0-0.2,0c-0.7,0-1.1-0.2-1.6-0.7c-0.4-0.5-0.7-1.1-0.7-1.9V123c0.8-0.2,1.7-0.2,2.6-0.2c2.7,0,4,1.5,4,4.4
			C134.7,128.5,134.3,129.5,133.7,130.3z"/>
	</g>
</g>
</svg>
